<svg width="300" height="300" viewBox="0 0 300 300" fill="none" xmlns="http://www.w3.org/2000/svg">
<rect width="300" height="300" fill="#F3F4F6"/>
<path d="M150 120C139.5 120 131 128.5 131 139V161C131 171.5 139.5 180 150 180C160.5 180 169 171.5 169 161V139C169 128.5 160.5 120 150 120Z" fill="#D1D5DB"/>
<path d="M120 105C109.5 105 101 113.5 101 124V176C101 186.5 109.5 195 120 195H180C190.5 195 199 186.5 199 176V124C199 113.5 190.5 105 180 105H120ZM180 185H120C115.5 185 111 180.5 111 176V124C111 119.5 115.5 115 120 115H180C184.5 115 189 119.5 189 124V176C189 180.5 184.5 185 180 185Z" fill="#9CA3AF"/>
<circle cx="165" cy="135" r="8" fill="#D1D5DB"/>
</svg>